<svg width="136" height="32" viewBox="0 0 136 32" fill="none" xmlns="http://www.w3.org/2000/svg">
<path d="M3.58919 0.0282722C4.36333 -0.0493744 5.58952 0.0406083 5.98711 0.204314C6.79776 0.538107 6.90607 0.643179 8.85482 2.9866C10.8438 5.3785 12.1127 6.90185 12.7267 7.63452C12.9854 7.94323 14.0107 9.17173 15.0059 10.3647C16.0012 11.558 17.0411 12.805 17.3173 13.1356C17.5935 13.466 19.9575 16.2969 22.5694 19.4272C25.1744 22.5492 27.3471 25.105 27.4079 25.1189C27.4574 25.1189 27.5455 25.0724 27.6027 25.0147C27.6961 24.9199 27.7059 24.0014 27.7059 15.9304C27.7059 9.87905 27.6842 6.91922 27.6381 6.82202C27.6005 6.75108 27.5122 6.69301 27.4423 6.69285C27.3319 6.69285 25.7931 8.00403 21.9256 11.396C20.5221 12.6269 20.5117 12.6345 20.2131 12.6345C20.0023 12.6345 19.9062 12.5887 19.7194 12.4001C19.5216 12.2005 19.4917 12.1303 19.5131 11.9168C19.5333 11.7169 20.2408 10.6214 23.0413 6.45848C24.9887 3.56358 26.6801 1.11688 26.8496 0.949105C27.2006 0.601699 27.8346 0.240526 28.3256 0.108481C28.7906 -0.0164351 29.7173 -0.00815413 30.159 0.124106C31.3709 0.48703 32.3134 1.50762 32.5715 2.7366C32.7117 3.41269 32.7137 28.5971 32.5736 29.2668C32.2953 30.5912 31.1813 31.6826 29.8611 31.9241C28.921 32.0961 27.7095 31.9679 27.0361 31.6251C26.3433 31.2726 26.4601 31.401 22.7298 26.922C21.0642 24.9221 17.2807 20.3874 15.9621 18.8106C15.5937 18.37 14.5039 17.063 13.5402 15.9064C12.5766 14.7498 10.972 12.8269 9.97461 11.6335C8.97736 10.4403 7.687 8.89281 7.1069 8.19494C6.52696 7.49725 5.99435 6.91633 5.92461 6.90431C5.59057 6.84639 5.6069 6.37628 5.6069 16.0679C5.6069 22.9964 5.62516 25.1106 5.68607 25.1731C5.82243 25.3107 5.96198 25.2624 6.30273 24.9616C7.94749 23.5099 12.5611 19.5373 12.7194 19.4366C12.973 19.2762 13.1951 19.2782 13.4611 19.4418C13.7156 19.5988 13.8581 19.9874 13.7559 20.246C13.7183 20.3397 12.9946 21.4428 12.1465 22.6991C11.2975 23.9566 9.8017 26.1799 8.82253 27.6397C6.623 30.9189 6.60802 30.9389 6.04232 31.3397C5.42334 31.7784 4.83403 31.9607 4.05169 31.9574C2.54528 31.9509 1.28137 31.0119 0.824609 29.5595L0.677734 29.0918V2.78661L0.830859 2.36056C1.15691 1.44967 1.75288 0.769414 2.59961 0.342856C2.99569 0.143292 3.24899 0.0624064 3.58919 0.0282722Z" fill="#6200EE"/>
<path fill-rule="evenodd" clip-rule="evenodd" d="M72.0079 11.0106C73.462 11.0106 74.7271 11.3387 75.8027 11.996C76.8784 12.6334 77.7145 13.5302 78.3121 14.6856C78.9097 15.821 79.209 17.1456 79.209 18.6595V19.9439H68.4225C68.4624 20.9598 68.8408 21.7867 69.5579 22.4241C70.275 23.0615 71.1514 23.3803 72.1871 23.3804C73.2428 23.3804 74.0204 23.151 74.5183 22.6929C75.0162 22.2348 75.3949 21.7265 75.6538 21.1689L78.7308 22.7824C78.452 23.3003 78.0436 23.8681 77.5058 24.4856C76.9879 25.0831 76.2906 25.6015 75.4142 26.0397C74.5377 26.458 73.4218 26.6668 72.0673 26.6668C70.5935 26.6667 69.289 26.3581 68.1538 25.7408C67.0383 25.1034 66.162 24.2167 65.5246 23.0814C64.9071 21.9261 64.5975 20.5716 64.5975 19.0179V18.6595C64.5975 17.1058 64.9071 15.7606 65.5246 14.6251C66.142 13.4702 67.0084 12.5842 68.1236 11.9668C69.239 11.3294 70.5339 11.0106 72.0079 11.0106ZM71.9777 14.297C70.962 14.2971 70.1554 14.5563 69.5579 15.0741C68.9604 15.592 68.5921 16.2791 68.4527 17.1356H75.384C75.3043 16.279 74.9556 15.592 74.3381 15.0741C73.7406 14.5562 72.9537 14.297 71.9777 14.297Z" fill="#6200EE"/>
<path d="M110.892 11.0106C112.546 11.0106 113.921 11.3787 115.016 12.1158C116.112 12.8527 116.829 13.8187 117.167 15.0137L113.671 16.0897C113.512 15.3328 113.183 14.7949 112.685 14.4762C112.207 14.1576 111.609 13.9981 110.892 13.9981C110.175 13.9981 109.628 14.1278 109.25 14.3866C108.871 14.6256 108.682 14.9641 108.682 15.4022C108.682 15.8802 108.881 16.2392 109.279 16.4783C109.677 16.6973 110.215 16.866 110.892 16.9856L111.729 17.1356C112.844 17.3348 113.851 17.6032 114.748 17.9418C115.664 18.2605 116.381 18.7296 116.899 19.347C117.436 19.9446 117.705 20.7614 117.705 21.797C117.705 23.3506 117.137 24.5551 116.002 25.4116C114.886 26.2482 113.383 26.6668 111.49 26.6668C109.558 26.6668 107.974 26.2482 106.739 25.4116C105.504 24.575 104.757 23.3798 104.499 21.8262L107.964 20.9304C108.104 21.6273 108.333 22.1747 108.652 22.5731C108.99 22.9714 109.399 23.2604 109.877 23.4397C110.375 23.5991 110.913 23.6793 111.49 23.6793C112.367 23.6793 113.014 23.5291 113.432 23.2304C113.85 22.9117 114.06 22.5238 114.06 22.0658C114.06 21.6076 113.86 21.259 113.462 21.0199C113.064 20.761 112.426 20.5512 111.55 20.3918L110.713 20.2429C109.677 20.0437 108.731 19.7752 107.875 19.4366C107.018 19.0781 106.331 18.5895 105.813 17.972C105.295 17.3545 105.036 16.5574 105.036 15.5814C105.036 14.1076 105.574 12.9822 106.65 12.2054C107.725 11.4086 109.14 11.0106 110.892 11.0106Z" fill="#6200EE"/>
<path d="M57.1308 23.5595H57.6684V5.33348H61.5527V26.2491H54.0527L49.8996 8.02306H49.3621V26.2491H45.4777V5.33348H52.9777L57.1308 23.5595Z" fill="#6200EE"/>
<path d="M86.3558 23.7095H86.8944L88.8058 11.4293H94.8423L96.7538 23.7095H97.2923L98.6069 11.4293H102.341L100.25 26.2491H94.0048L92.0933 13.9689H91.5548L89.6433 26.2491H83.3986L81.3069 11.4293H85.0413L86.3558 23.7095Z" fill="#6200EE"/>
<path d="M126.985 16.3595H127.523L130.9 11.4293H135.262L129.943 18.7793L135.321 26.2491H130.9L127.523 21.2595H126.985L123.609 26.2491H119.186L124.565 18.7793L119.246 11.4293H123.609L126.985 16.3595Z" fill="#6200EE"/>
</svg>
